<svg xmlns="http://www.w3.org/2000/svg" xmlns:xlink="http://www.w3.org/1999/xlink" width="150" height="150" viewBox="0 0 150 150"><defs><style>.a{fill:url(#a);}.b{fill:#fff;}</style><linearGradient id="a" x1="1" y1="0.066" x2="-0.294" y2="1.381" gradientUnits="objectBoundingBox"><stop offset="0" stop-color="#3459a5"/><stop offset="1" stop-color="#001c57"/></linearGradient></defs><g transform="translate(-739 -128)"><rect class="a" width="150" height="150" rx="31" transform="translate(739 128)"/><path class="b" d="M91.094,25.469a19.87,19.87,0,0,0-10-5.156,20.13,20.13,0,0,0-4.375-6.563,17.358,17.358,0,0,0-24.844-.156l-1.562,1.563-1.719-1.719A18.324,18.324,0,0,0,35.625,8.125a18.759,18.759,0,0,0-12.969,5.469c-8.75,8.75-4.531,18.906,1.563,25.156l3.906,3.906a.574.574,0,0,1,.156.469,1.688,1.688,0,0,1-.469,1.094,1.058,1.058,0,0,1-1.562.156L14.374,32.5,3.124,43.906,14.843,55.625a18.156,18.156,0,0,0,16.719,4.844l-5.937,5.937L51.094,91.875,91.719,51.25a17.944,17.944,0,0,0-.625-25.781ZM89.375,48.907,51.094,87.188l-6.875-6.875L82.188,42.344a4.78,4.78,0,0,0-.312-6.875A4.782,4.782,0,0,0,75,35.156L37.032,73.125l-6.719-6.719L67.188,29.688a4.6,4.6,0,0,0-.312-6.25c-1.875-1.875-4.688-2.031-6.25-.469l-10,10L39.687,22.031a4.451,4.451,0,0,0-6.25.313,4.6,4.6,0,0,0-.312,6.25L37.031,32.5c9.063,9.063,4.219,17.656,1.406,20.625a14.887,14.887,0,0,1-21.25.156L7.812,43.906l6.719-6.719,9.687,9.688a4.451,4.451,0,0,0,6.25-.312,4.451,4.451,0,0,0,.313-6.25l-3.906-3.906c-1.25-1.25-10.938-11.094-1.562-20.469a14.887,14.887,0,0,1,21.25-.156l4.063,3.906,3.906-3.906c4.844-4.844,13.438-6.406,20.156.156a18.592,18.592,0,0,1,4.375,7.188,16.2,16.2,0,0,1,10,4.531c6.563,6.875,5.469,16.25.313,21.25Z" transform="translate(763.875 152.875)"/></g></svg>