<svg xmlns="http://www.w3.org/2000/svg" width="15.069" height="15.061" viewBox="0 0 15.069 15.061"><defs><style>.a{fill:#fff;}</style></defs><g transform="translate(-9.332 -9.375)"><path class="a" d="M49.7,16.971a.579.579,0,0,0,.409-.17l5.45-5.45v2.818a.579.579,0,0,0,1.158,0V9.954a.579.579,0,0,0-.579-.579H51.926a.579.579,0,1,0,0,1.158h2.817l-5.488,5.45a.579.579,0,0,0,.409.988Z" transform="translate(-32.388 0)"/><path class="a" d="M23.814,17.527a.579.579,0,0,0-.579.579v4.786a.378.378,0,0,1-.378.378H10.876a.378.378,0,0,1-.378-.378V10.911a.378.378,0,0,1,.378-.378h4.531a.579.579,0,1,0,0-1.158H10.876a1.544,1.544,0,0,0-1.544,1.544V22.891a1.544,1.544,0,0,0,1.544,1.544h11.98A1.544,1.544,0,0,0,24.4,22.891V18.106a.579.579,0,0,0-.587-.579Z" transform="translate(0 0)"/></g></svg>