<svg xmlns="http://www.w3.org/2000/svg" width="14.965" height="14.905" viewBox="0 0 14.965 14.905"><defs><style>.a{fill:#9a9a9a;}</style></defs><path class="a" d="M6.25,6.247V19.021h4.791V17.957H7.315V15.516l2.661-2.661,1.6,1.6,3.194-3.194,1.753,1.753.753-.753L14.766,9.752l-3.194,3.194-1.6-1.6L7.314,14.01v-6.7H17.96v3.726h1.065V6.246Zm5.057,2.661a.8.8,0,1,0,.565.234A.8.8,0,0,0,11.307,8.908Zm8.25,3.133a1.656,1.656,0,0,0-1.175.484L12.105,18.8v2.349h2.349l6.277-6.277a1.658,1.658,0,0,0-1.175-2.833Zm0,1.056a.6.6,0,0,1,.422.18.585.585,0,0,1,0,.844l-5.965,5.965H13.17v-.844l5.965-5.965a.594.594,0,0,1,.422-.18Z" transform="translate(-6.25 -6.246)"/></svg>