<svg id="Layer_1" data-name="Layer 1" xmlns="http://www.w3.org/2000/svg" viewBox="0 0 158.59 41.13"><defs><style>.cls-1{fill:#414042;}</style></defs><path class="cls-1" d="M340.63,414.82h-9.19a.49.49,0,0,1-.49-.49v-39.6a.49.49,0,0,1,.84-.35l5.83,5.83a.49.49,0,0,1,.15.35V386a.5.5,0,0,1-1,0v-5.23l-4.85-4.85v37.92h8.7a.49.49,0,0,1,0,1Z" transform="translate(-233.5 -374.23)"/><path class="cls-1" d="M322.37,415h-6.68a.5.5,0,0,1,0-1h6.19V384.57a.49.49,0,0,1,.84-.35l5.69,5.69a.48.48,0,0,1,.14.34v17.86a.49.49,0,0,1-1,0V390.46l-4.7-4.7v28.73A.5.5,0,0,1,322.37,415Z" transform="translate(-233.5 -374.23)"/><path class="cls-1" d="M325.22,400.62h-2.85a.49.49,0,0,1,0-1h2.85a.49.49,0,0,1,0,1Z" transform="translate(-233.5 -374.23)"/><path class="cls-1" d="M344.55,414.82a.5.5,0,0,1-.5-.49V388.58l-4.7,4.71v14.65a.49.49,0,1,1-1,0V393.08a.52.52,0,0,1,.14-.35l5.69-5.68a.49.49,0,0,1,.54-.11.51.51,0,0,1,.3.46v26.93A.49.49,0,0,1,344.55,414.82Z" transform="translate(-233.5 -374.23)"/><path class="cls-1" d="M344.55,400.46H341.7a.5.5,0,0,1,0-1h2.85a.5.5,0,0,1,0,1Z" transform="translate(-233.5 -374.23)"/><path class="cls-1" d="M370.21,414.82a.49.49,0,0,1-.49-.49V383.28a.48.48,0,0,1,.3-.45.49.49,0,0,1,.54.1l5.69,5.69a.5.5,0,0,1,.14.35v12.39a.49.49,0,0,1-1,0V389.17l-4.7-4.7v29.86A.49.49,0,0,1,370.21,414.82Z" transform="translate(-233.5 -374.23)"/><path class="cls-1" d="M373.06,400.46h-2.85a.5.5,0,0,1,0-1h2.85a.5.5,0,0,1,0,1Z" transform="translate(-233.5 -374.23)"/><path class="cls-1" d="M348.08,414.82a.49.49,0,0,1-.49-.49V400a.49.49,0,0,1,.49-.49.5.5,0,0,1,.5.49v14.37A.5.5,0,0,1,348.08,414.82Z" transform="translate(-233.5 -374.23)"/><path class="cls-1" d="M351.93,414.82a.49.49,0,0,1-.49-.49v-9.24l-3.64-1.83a.49.49,0,1,1,.57-.8l3.85,2a.52.52,0,0,1,.21.41v9.49A.49.49,0,0,1,351.93,414.82Z" transform="translate(-233.5 -374.23)"/><path class="cls-1" d="M355.29,414.82a.49.49,0,0,1-.5-.49v-5.47l-3.12-1.3a.49.49,0,0,1,.53-.83l3.35,1.45a.49.49,0,0,1,.23.41v5.74A.49.49,0,0,1,355.29,414.82Z" transform="translate(-233.5 -374.23)"/><path class="cls-1" d="M358.82,414.82a.49.49,0,0,1-.49-.49V395.68a.49.49,0,1,1,1,0v18.65A.49.49,0,0,1,358.82,414.82Z" transform="translate(-233.5 -374.23)"/><path class="cls-1" d="M362.67,414.82a.49.49,0,0,1-.49-.49V400.8L358.54,399a.49.49,0,0,1-.12-.69.49.49,0,0,1,.69-.11l3.85,2a.48.48,0,0,1,.2.4v13.78A.49.49,0,0,1,362.67,414.82Z" transform="translate(-233.5 -374.23)"/><path class="cls-1" d="M366,414.82a.49.49,0,0,1-.49-.49v-9.75l-3.12-1.31a.49.49,0,0,1-.15-.68.49.49,0,0,1,.67-.15l3.36,1.45a.49.49,0,0,1,.23.41v10A.49.49,0,0,1,366,414.82Z" transform="translate(-233.5 -374.23)"/><path class="cls-1" d="M391.6,414.82h-5.91a.5.5,0,0,1-.44-.28l-2.86-5.91a.52.52,0,0,1,.09-.57l2.72-2.71v-2.72l-5.27-5.27v17a.5.5,0,0,1-1,0V396.17a.49.49,0,0,1,.84-.35l6.26,6.26a.51.51,0,0,1,.15.35v3.12a.51.51,0,0,1-.15.35l-2.61,2.61,2.57,5.33h5.6a.49.49,0,1,1,0,1Z" transform="translate(-233.5 -374.23)"/><path class="cls-1" d="M236.78,403.86c-2.18,0-3.28-1-3.28-2.91a2.92,2.92,0,0,1,3.15-3.1,6.81,6.81,0,0,1,2.52.44v4.65h1.38v.92Zm1.26-4.81a3.41,3.41,0,0,0-1.51-.3,1.74,1.74,0,0,0-1.37.57,2.21,2.21,0,0,0-.5,1.5c0,1.41.76,2.12,2.28,2.12H238Zm-2.88-2.41a.65.65,0,0,1-.19-.48.64.64,0,0,1,.19-.47.61.61,0,0,1,.47-.19.64.64,0,0,1,.47.19.63.63,0,0,1,.19.47.68.68,0,0,1-.19.48.64.64,0,0,1-.47.19A.61.61,0,0,1,235.16,396.64Zm1.84,0a.65.65,0,0,1-.19-.48.64.64,0,0,1,.19-.47.65.65,0,0,1,.48-.19.62.62,0,0,1,.46.19.63.63,0,0,1,.19.47.65.65,0,0,1-.19.48.62.62,0,0,1-.46.19A.65.65,0,0,1,237,396.64Z" transform="translate(-233.5 -374.23)"/><path class="cls-1" d="M240.36,402.94h2.52v-5H244v5.88h-3.67Zm1.54,3.26a.65.65,0,0,1-.47.2.67.67,0,0,1-.66-.68.6.6,0,0,1,.19-.46.62.62,0,0,1,.47-.2.64.64,0,0,1,.47.19.63.63,0,0,1,.19.47A.65.65,0,0,1,241.9,406.2Zm1.84,0a.63.63,0,0,1-.46.2.68.68,0,0,1-.68-.68.61.61,0,0,1,.2-.46.66.66,0,0,1,.48-.2.62.62,0,0,1,.46.19.63.63,0,0,1,.19.47A.65.65,0,0,1,243.74,406.2Z" transform="translate(-233.5 -374.23)"/><path class="cls-1" d="M244.94,406.9l.12-.95a3.72,3.72,0,0,0,1.27.21,1.51,1.51,0,0,0,1.22-.46A2.52,2.52,0,0,0,248,404v-6h1.15v5.94q0,3.15-2.9,3.15A5.34,5.34,0,0,1,244.94,406.9Z" transform="translate(-233.5 -374.23)"/><path class="cls-1" d="M251.41,395h1.14v7.9h1.38v.92h-2.52Z" transform="translate(-233.5 -374.23)"/><path class="cls-1" d="M253.74,402.94h.73c.28,0,.58,0,.88.05a2.47,2.47,0,0,1-.82-2.09,3,3,0,0,1,.81-2.17,2.92,2.92,0,0,1,2.22-.88,2.85,2.85,0,0,1,2,.66,2.93,2.93,0,0,1,.79,2.24,2.59,2.59,0,0,1-1,2.24c.42,0,.79-.05,1.09-.05h.86v.92h-7.58Zm4.92-.51a2.29,2.29,0,0,0,.52-1.61c0-1.38-.57-2.07-1.73-2.07a1.61,1.61,0,0,0-1.21.5,2.11,2.11,0,0,0-.55,1.56c0,1.42.58,2.13,1.75,2.13A1.58,1.58,0,0,0,258.66,402.43Zm-2.56-5.79a.66.66,0,0,1,0-.95.63.63,0,0,1,.47-.19.6.6,0,0,1,.46.19.63.63,0,0,1,.2.47.69.69,0,0,1-.2.48.6.6,0,0,1-.46.19A.63.63,0,0,1,256.1,396.64Zm1.84,0a.66.66,0,0,1,0-.95.65.65,0,0,1,.48-.19.62.62,0,0,1,.46.19.67.67,0,0,1,.19.47.69.69,0,0,1-.19.48.62.62,0,0,1-.46.19A.65.65,0,0,1,257.94,396.64Z" transform="translate(-233.5 -374.23)"/><path class="cls-1" d="M261.13,402.94h.41a8.25,8.25,0,0,0,3.42-.64,9.74,9.74,0,0,0-3-2.18l.11-.8a6.18,6.18,0,0,1,3.6-1.5,2.65,2.65,0,0,1,1.85.59,1.75,1.75,0,0,1,.57,1.35,3.27,3.27,0,0,1-1.5,2.58,3.13,3.13,0,0,0,1.8.6h.76v.92h-.92a4,4,0,0,1-2.54-.93,9,9,0,0,1-4.24.93h-.31Zm4.71-1.18a2.31,2.31,0,0,0,1.09-1.85,1.18,1.18,0,0,0-.33-.87,1.46,1.46,0,0,0-1.06-.36,4.55,4.55,0,0,0-2.41,1A13,13,0,0,1,265.84,401.76Z" transform="translate(-233.5 -374.23)"/><path class="cls-1" d="M269,402.94h1.76V395h1.14v8.82H269Z" transform="translate(-233.5 -374.23)"/><path class="cls-1" d="M274.22,395h1.15v8.82h-1.15Z" transform="translate(-233.5 -374.23)"/><path class="cls-1" d="M278.83,406.9,279,406a3.72,3.72,0,0,0,1.27.21,1.51,1.51,0,0,0,1.22-.46,2.58,2.58,0,0,0,.44-1.68v-6H283v5.94q0,3.15-2.9,3.15A5.34,5.34,0,0,1,278.83,406.9Z" transform="translate(-233.5 -374.23)"/><path class="cls-1" d="M285.29,403.86V395h1.15v7.9h1a1.44,1.44,0,0,0,1.11-.39,2.52,2.52,0,0,0,.42-1.65,2.92,2.92,0,0,1,3.13-3c1.78,0,2.67.93,2.67,2.8v2.29H296v.92h-3.6c-1.45,0-2.41-.39-2.88-1.18a1.64,1.64,0,0,1-1.69,1.17h-2.53Zm8.33-3c0-1.39-.55-2.09-1.65-2.09a1.74,1.74,0,0,0-1.37.58,2.17,2.17,0,0,0-.5,1.5c0,1.41.76,2.11,2.28,2.11h1.24Z" transform="translate(-233.5 -374.23)"/><path class="cls-1" d="M295.8,402.94h.41a8.25,8.25,0,0,0,3.42-.64,9.74,9.74,0,0,0-3-2.18l.11-.8a6.18,6.18,0,0,1,3.6-1.5,2.65,2.65,0,0,1,1.85.59,1.75,1.75,0,0,1,.57,1.35,3.27,3.27,0,0,1-1.5,2.58,3.13,3.13,0,0,0,1.8.6h.76v.92h-.92a4,4,0,0,1-2.54-.93,9,9,0,0,1-4.24.93h-.31Zm4.71-1.18a2.31,2.31,0,0,0,1.09-1.85,1.18,1.18,0,0,0-.33-.87,1.46,1.46,0,0,0-1.06-.36,4.55,4.55,0,0,0-2.41,1A13,13,0,0,1,300.51,401.76Z" transform="translate(-233.5 -374.23)"/><path class="cls-1" d="M303.62,402.94h1.76V395h1.14v8.82h-2.9Z" transform="translate(-233.5 -374.23)"/><path class="cls-1" d="M308.89,395H310v8.82h-1.15Z" transform="translate(-233.5 -374.23)"/><path class="cls-1" d="M237.53,414l-.42,1.27h-.54l1.38-4h.63l1.38,4h-.56L239,414Zm1.33-.41-.4-1.16c-.09-.26-.15-.5-.21-.74h0c-.06.24-.12.49-.2.74l-.4,1.16Z" transform="translate(-233.5 -374.23)"/><path class="cls-1" d="M241.39,411.26h.52v3.61h1.73v.43h-2.25Z" transform="translate(-233.5 -374.23)"/><path class="cls-1" d="M245.72,414l-.42,1.27h-.54l1.37-4h.63l1.38,4h-.56l-.43-1.27Zm1.32-.41-.39-1.16c-.09-.26-.15-.5-.21-.74h0c-.06.24-.13.49-.21.74l-.39,1.16Z" transform="translate(-233.5 -374.23)"/><path class="cls-1" d="M253,413.53c0-.57-.07-1.24-.06-1.75h0c-.14.48-.31,1-.51,1.54l-.71,2h-.4l-.65-1.92c-.19-.57-.36-1.1-.47-1.58h0c0,.51,0,1.18-.08,1.79l-.11,1.73h-.5l.29-4h.66l.69,2c.17.49.31.94.41,1.36h0c.1-.41.24-.85.42-1.36l.72-2h.67l.25,4h-.51Z" transform="translate(-233.5 -374.23)"/><path class="cls-1" d="M258.62,413.53c0-.57-.06-1.24-.06-1.75h0c-.13.48-.3,1-.51,1.54l-.71,2h-.39l-.66-1.92c-.19-.57-.35-1.1-.47-1.58h0c0,.51,0,1.18-.08,1.79l-.1,1.73h-.5l.28-4h.67l.69,2c.16.49.3.94.4,1.36h0c.1-.41.25-.85.43-1.36l.72-2H259l.25,4h-.51Z" transform="translate(-233.5 -374.23)"/><path class="cls-1" d="M261.47,414l-.42,1.27h-.54l1.38-4h.63l1.38,4h-.56l-.43-1.27Zm1.33-.41-.4-1.16c-.09-.26-.15-.5-.21-.74h0c-.06.24-.12.49-.2.74l-.4,1.16Z" transform="translate(-233.5 -374.23)"/><path class="cls-1" d="M265.33,411.32a5,5,0,0,1,1-.09,1.64,1.64,0,0,1,1.17.33,1,1,0,0,1,.32.77,1.06,1.06,0,0,1-.76,1v0a1,1,0,0,1,.59.81,6.34,6.34,0,0,0,.31,1.11h-.54a6.34,6.34,0,0,1-.27-1c-.12-.56-.33-.77-.8-.79h-.5v1.75h-.52Zm.52,1.84h.54c.55,0,.91-.31.91-.77s-.38-.75-.93-.76a2.46,2.46,0,0,0-.52.05Z" transform="translate(-233.5 -374.23)"/><path class="cls-1" d="M271.39,411.32a5,5,0,0,1,1-.09,1.64,1.64,0,0,1,1.17.33,1,1,0,0,1,.32.77,1.06,1.06,0,0,1-.76,1v0a1,1,0,0,1,.59.81,6.34,6.34,0,0,0,.31,1.11h-.54a6.34,6.34,0,0,1-.27-1c-.12-.56-.33-.77-.8-.79h-.5v1.75h-.52Zm.52,1.84h.54c.55,0,.91-.31.91-.77s-.38-.75-.93-.76a2.46,2.46,0,0,0-.52.05Z" transform="translate(-233.5 -374.23)"/><path class="cls-1" d="M277.55,413.41H276v1.46h1.75v.43h-2.27v-4h2.18v.44H276V413h1.57Z" transform="translate(-233.5 -374.23)"/><path class="cls-1" d="M279.91,414l-.42,1.27H279l1.37-4H281l1.38,4h-.56l-.43-1.27Zm1.32-.41-.4-1.16c-.09-.26-.14-.5-.21-.74h0c-.06.24-.12.49-.2.74l-.4,1.16Z" transform="translate(-233.5 -374.23)"/><path class="cls-1" d="M283.76,411.26h.53v3.61H286v.43h-2.25Z" transform="translate(-233.5 -374.23)"/><path class="cls-1" d="M291.52,413.41H290v1.46h1.75v.43h-2.27v-4h2.18v.44H290V413h1.57Z" transform="translate(-233.5 -374.23)"/><path class="cls-1" d="M293.15,414.67a1.85,1.85,0,0,0,.93.26c.54,0,.85-.28.85-.69s-.22-.59-.76-.8-1.07-.58-1.07-1.15a1.16,1.16,0,0,1,1.31-1.09,1.87,1.87,0,0,1,.89.19l-.14.43a1.7,1.7,0,0,0-.77-.19c-.55,0-.76.33-.76.6s.24.57.8.78,1,.6,1,1.19-.46,1.16-1.41,1.16a2.11,2.11,0,0,1-1-.25Z" transform="translate(-233.5 -374.23)"/><path class="cls-1" d="M297.78,411.71h-1.22v-.45h3v.45h-1.24v3.59h-.53Z" transform="translate(-233.5 -374.23)"/><path class="cls-1" d="M301,414l-.42,1.27h-.54l1.38-4h.63l1.38,4h-.56l-.43-1.27Zm1.33-.41-.4-1.16c-.09-.26-.15-.5-.21-.74h0c-.06.24-.13.49-.2.74l-.4,1.16Z" transform="translate(-233.5 -374.23)"/><path class="cls-1" d="M305.21,411.71H304v-.45h3v.45h-1.24v3.59h-.52Z" transform="translate(-233.5 -374.23)"/><path class="cls-1" d="M310.35,413.41h-1.57v1.46h1.75v.43h-2.27v-4h2.18v.44h-1.66V413h1.57Z" transform="translate(-233.5 -374.23)"/></svg>