<svg xmlns="http://www.w3.org/2000/svg" width="21.174" height="29.532" viewBox="0 0 21.174 29.532"><defs><style>.a{fill:#bcbcbc;}</style></defs><g transform="translate(-40.625 -17.188)"><path class="a" d="M59.57,17.188H42.854a2.232,2.232,0,0,0-2.229,2.229V44.491a2.232,2.232,0,0,0,2.229,2.229H55.113a1.148,1.148,0,0,0,.217-.021c.029-.006.056-.017.085-.025h0a1.03,1.03,0,0,0,.123-.038,1.1,1.1,0,0,0,.1-.052.914.914,0,0,0,.1-.052h0a1.17,1.17,0,0,0,.171-.139l5.572-5.572a1.126,1.126,0,0,0,.125-.155c.011-.015.021-.032.031-.049h0a1.149,1.149,0,0,0,.068-.13c.008-.018.017-.035.024-.053h0a1.215,1.215,0,0,0,.056-.184v0h0a1.141,1.141,0,0,0,.018-.2c0-.007,0-.014,0-.022V19.417a2.232,2.232,0,0,0-2.229-2.229ZM55.113,45.606V40.034h5.572Zm5.572-6.687H55.113A1.114,1.114,0,0,0,54,40.034v5.572H42.854a1.114,1.114,0,0,1-1.114-1.114V19.417A1.114,1.114,0,0,1,42.854,18.3H59.57a1.113,1.113,0,0,1,1.114,1.114Z"/><path class="a" d="M52.12,29.239h6.687a.557.557,0,1,0,0-1.114H52.12a.557.557,0,0,0,0,1.114Z" transform="translate(-7.037 -7.037)"/><path class="a" d="M64.378,43.75H52.12a.557.557,0,0,0,0,1.114H64.378a.557.557,0,0,0,0-1.114Z" transform="translate(-7.037 -20.656)"/><path class="a" d="M64.378,43.75H52.12a.557.557,0,0,0,0,1.114H64.378a.557.557,0,0,0,0-1.114Z" transform="translate(-7.037 -15.663)"/><path class="a" d="M5.853,0H.254C.114,0,0,.249,0,.557s.114.557.254.557h5.6c.141,0,.254-.249.254-.557S5.993,0,5.853,0Z" transform="translate(44.526 29.201) rotate(-90)"/><path class="a" d="M5.853,1.114H.254C.114,1.114,0,.865,0,.557S.114,0,.254,0h5.6c.141,0,.254.249.254.557S5.993,1.114,5.853,1.114Z" transform="translate(56.784 29.201) rotate(-90)"/><path class="a" d="M63.189,59.375H52.068a.56.56,0,0,0,0,1.114H63.189a.56.56,0,0,0,0-1.114Z" transform="translate(-7.037 -28.925)"/><path class="a" d="M60.954,59.375H51.971c-.226,0-.408.249-.408.557s.183.557.408.557h8.983c.226,0,.408-.249.408-.557S61.179,59.375,60.954,59.375Z" transform="translate(-7.037 -26.919)"/><path class="a" d="M62.234,59.375H52.026a.567.567,0,0,0,0,1.114H62.234a.567.567,0,0,0,0-1.114Z" transform="translate(-7.037 -24.914)"/><path class="a" d="M59.411,59.375H51.9c-.189,0-.341.249-.341.557s.153.557.341.557h7.508c.189,0,.341-.249.341-.557S59.6,59.375,59.411,59.375Z" transform="translate(-7.037 -22.774)"/><path class="a" d="M55.3,59.375H51.725c-.09,0-.163.249-.163.557s.073.557.163.557H55.3c.09,0,.163-.249.163-.557S55.39,59.375,55.3,59.375Z" transform="translate(-7.037 -19.921)"/><path class="a" d="M52.12,68.3h3.9a.557.557,0,1,0,0-1.114h-3.9a.557.557,0,1,0,0,1.114Z" transform="translate(-7.037 -25.036)"/></g></svg>