<svg xmlns="http://www.w3.org/2000/svg" width="13.413" height="14.371" viewBox="0 0 13.413 14.371"><defs><style>.a{fill:#9a9a9a;}</style></defs><g transform="translate(-6.25 -3.125)"><path class="a" d="M17.791,16.13,18.2,7.915h.023a1.437,1.437,0,0,0,0-2.874h-2.5l-.207-.827a1.437,1.437,0,0,0-1.395-1.089H11.81A1.437,1.437,0,0,0,10.421,4.19l-.228.851H7.687a1.437,1.437,0,0,0,0,2.874H7.71l.411,8.215A1.437,1.437,0,0,0,9.555,17.5h6.8a1.437,1.437,0,0,0,1.434-1.365ZM11.348,4.438a.479.479,0,0,1,.462-.354h2.314a.479.479,0,0,1,.465.363l.149.6H11.184ZM7.208,6.478A.479.479,0,0,1,7.687,6H18.225a.479.479,0,0,1,0,.958H7.687A.479.479,0,0,1,7.208,6.478Zm1.868,9.6L8.67,7.915h8.574l-.408,8.168a.479.479,0,0,1-.479.454h-6.8a.479.479,0,0,1-.479-.455Z"/><path class="a" d="M61.941,46.871a.479.479,0,0,0-.5.455l-.192,3.832a.48.48,0,0,0,.958.048l.192-3.832a.479.479,0,0,0-.455-.5Z" transform="translate(-46.566 -37.04)"/><path class="a" d="M31.7,46.872a.479.479,0,0,0-.455.5l.192,3.832a.487.487,0,0,0,.5.455.479.479,0,0,0,.455-.5L32.2,47.327A.482.482,0,0,0,31.7,46.872Z" transform="translate(-21.165 -37.041)"/><path class="a" d="M47.354,46.875a.479.479,0,0,0-.479.479v3.832a.479.479,0,0,0,.958,0V47.354a.478.478,0,0,0-.479-.479Z" transform="translate(-34.398 -37.044)"/></g></svg>