<svg xmlns="http://www.w3.org/2000/svg" width="88" height="88" viewBox="0 0 88 88"><defs><style>.a{fill:#e6e6e6;}.b{fill:#d3d3d3;}</style></defs><g transform="translate(-1113 -391)"><circle class="a" cx="44" cy="44" r="44" transform="translate(1113 391)"/><path class="b" d="M41.383,45.214c-1.827-.975-.852-2.8,0-3.654,1.1-1.1,2.437-4.872,2.437-4.872A4.361,4.361,0,0,0,46.5,33.034c.975-3.168-1.462-3.654-1.462-3.654s1.948-5.237.365-9.257c-2.072-5.237-10.477-7.188-11.939-2.314-9.988-2.195-7.919,11.568-7.919,11.568s-2.437.486-1.462,3.654a4.365,4.365,0,0,0,2.679,3.654S28.1,40.461,29.2,41.558c.852.852,1.827,2.679,0,3.654-3.654,1.948-14.618,2.437-14.618,10.963H56C56,47.649,45.037,47.163,41.383,45.214Z" transform="translate(1121.71 399.408)"/></g></svg>