<svg xmlns="http://www.w3.org/2000/svg" xmlns:xlink="http://www.w3.org/1999/xlink" width="70" height="70" viewBox="0 0 70 70"><defs><style>.a{fill:url(#a);}.b{fill:#fff;}</style><linearGradient id="a" x1="0.5" x2="0.5" y2="1" gradientUnits="objectBoundingBox"><stop offset="0" stop-color="#f836a6"/><stop offset="1" stop-color="#e30dff"/></linearGradient></defs><g transform="translate(-1447.5 -433)"><rect class="a" width="70" height="70" rx="5" transform="translate(1447.5 433)"/><g transform="translate(1462.496 446.447)"><path class="b" d="M40.242,15.557H13.4L40.179,9.372,38.813,3.444a3.065,3.065,0,0,0-3.661-2.321L2.364,8.7A3.06,3.06,0,0,0,.008,11.65H0L.011,37.376A3.087,3.087,0,0,0,3.1,40.465H37.178a3.087,3.087,0,0,0,3.084-3.089Zm-8.6-11.223,5.3,3.463-4.089.944-5.3-3.46ZM23.393,6.242,28.7,9.7l-4.089.944-5.3-3.462ZM15.344,8.1l5.3,3.463-4.089.944-5.3-3.463ZM7.117,10l5.3,3.462-4.089.944-5.3-3.46ZM37.176,37.375H3.086V18.638h34.09Z" transform="translate(0 0)"/><path class="b" d="M42.012,55.879V65.906l8.022-5.015Z" transform="translate(-25.096 -32.758)"/></g></g></svg>