<svg xmlns="http://www.w3.org/2000/svg" xmlns:xlink="http://www.w3.org/1999/xlink" width="70" height="70" viewBox="0 0 70 70"><defs><style>.a{fill:url(#a);}.b{fill:#fff;}</style><linearGradient id="a" x1="0.5" x2="0.5" y2="1" gradientUnits="objectBoundingBox"><stop offset="0" stop-color="#f836a6"/><stop offset="1" stop-color="#e30dff"/></linearGradient></defs><g transform="translate(-1447.5 -433)"><rect class="a" width="70" height="70" rx="5" transform="translate(1447.5 433)"/><g transform="translate(1457.263 444.578)"><path class="b" d="M43.826,29.788a.778.778,0,0,0-.367-.461.765.765,0,0,0-.584-.065L11.849,38.17a.768.768,0,0,0-.525.951l4.521,15.744.008.031.986,3.432h0a.767.767,0,0,0,.738.557.712.712,0,0,0,.211-.031l31.026-8.909a.768.768,0,0,0,.525-.951ZM42.56,30.95,46.107,43.3l-7.434-4.2a.768.768,0,0,0-1.043.282l-2.459,4.239-9.578-5.555a.768.768,0,0,0-1.062.3L16.8,52.638l-3.791-13.2ZM17.412,54.75l8.095-14.956L34.4,44.951l-5.247,9.042L18.105,57.165Zm13.874-1.37,4.826-8.316.006-.006,0-.008,2.459-4.239,8.135,4.6.94,3.268Z" transform="translate(-4.152 -13.265)"/><path class="b" d="M52.827,45.359a3.074,3.074,0,1,0-1.439-3.624,3.083,3.083,0,0,0,1.439,3.624Zm1.066-4.167a1.536,1.536,0,1,1-1.1,1.3,1.536,1.536,0,0,1,1.1-1.3Z" transform="translate(-24.45 -18.532)"/><path class="b" d="M49.237,31.562V3.894a.768.768,0,0,0-.769-.769H10.042a.768.768,0,0,0-.769.769v6.917H3.893a.768.768,0,0,0-.769.769V39.247a.768.768,0,0,0,.769.769H8.039l2.542,8.852a.77.77,0,0,0,.74.555.722.722,0,0,0,.211-.031L48.467,38.786a.767.767,0,0,0,.526-.951l-1.581-5.5h1.057a.768.768,0,0,0,.769-.769ZM40.291,12.348l-5.353,1.537H6.967a.768.768,0,0,0-.769.769V22.14l-1.537.442V12.348Zm4.335,10.281-1.537-5.351v-5.7a.768.768,0,0,0-.769-.769H13.884V7.737H44.626ZM41.552,12.375c-.01-.01-.021-.017-.033-.027h.033ZM11,20.76a1.532,1.532,0,1,1,2.874-.824Zm4.367-1.255A3.07,3.07,0,1,0,9.5,21.192L7.736,21.7V15.422h21.85ZM4.662,38.478V28.255L7.6,38.478ZM11.847,47.7,5.057,24.066l30.1-8.644h.067a.752.752,0,0,0,.417-.138l4.875-1.4,1.038,3.61v.234a.77.77,0,0,0,.223.54l2.851,9.93v.29a.752.752,0,0,0,.244.555L47.3,37.52ZM47.7,30.793h-.73l-.807-2.813V6.968a.768.768,0,0,0-.769-.769H13.115a.768.768,0,0,0-.769.769v3.843H10.81V4.662H47.7Z"/></g></g></svg>