<svg xmlns="http://www.w3.org/2000/svg" xmlns:xlink="http://www.w3.org/1999/xlink" width="70" height="70" viewBox="0 0 70 70"><defs><style>.a{fill:url(#a);}.b{fill:#fff;}</style><linearGradient id="a" x1="0.5" x2="0.5" y2="1" gradientUnits="objectBoundingBox"><stop offset="0" stop-color="#f836a6"/><stop offset="1" stop-color="#e30dff"/></linearGradient></defs><g transform="translate(-1447.5 -433)"><rect class="a" width="70" height="70" rx="5" transform="translate(1447.5 433)"/><g transform="translate(1455.693 439.167)"><path class="b" d="M10.789,48.808a1.413,1.413,0,0,1-1.414-1.414V38.914a1.414,1.414,0,0,1,2.827,0v8.481a1.412,1.412,0,0,1-1.413,1.414Z" transform="translate(0 -11.98)"/><path class="b" d="M23.289,47.914A1.413,1.413,0,0,1,21.875,46.5V29.539a1.414,1.414,0,0,1,2.827,0V46.5a1.412,1.412,0,0,1-1.414,1.414Z" transform="translate(-6.846 -6.846)"/><path class="b" d="M35.789,48.808a1.413,1.413,0,0,1-1.414-1.414V38.914a1.414,1.414,0,1,1,2.827,0v8.481a1.412,1.412,0,0,1-1.413,1.414Z" transform="translate(-13.692 -11.98)"/><path class="b" d="M48.289,47.616A1.413,1.413,0,0,1,46.875,46.2V26.414a1.414,1.414,0,1,1,2.827,0V46.2a1.412,1.412,0,0,1-1.413,1.413Z" transform="translate(-20.538 -5.134)"/><path class="b" d="M60.789,46.722a1.413,1.413,0,0,1-1.414-1.414V17.039a1.414,1.414,0,0,1,2.827,0v28.27a1.412,1.412,0,0,1-1.414,1.414Z" transform="translate(-27.384)"/><path class="b" d="M73.289,47.914A1.413,1.413,0,0,1,71.875,46.5V29.539a1.414,1.414,0,0,1,2.827,0V46.5a1.412,1.412,0,0,1-1.414,1.414Z" transform="translate(-34.23 -6.846)"/><path class="b" d="M85.789,49.106a1.413,1.413,0,0,1-1.414-1.414V42.039a1.414,1.414,0,0,1,2.827,0v5.654a1.412,1.412,0,0,1-1.414,1.413Z" transform="translate(-41.076 -13.692)"/></g></g></svg>