<svg xmlns="http://www.w3.org/2000/svg" xmlns:xlink="http://www.w3.org/1999/xlink" width="70" height="70" viewBox="0 0 70 70"><defs><style>.a{fill:url(#a);}.b{fill:#fff;}</style><linearGradient id="a" x1="0.5" x2="0.5" y2="1" gradientUnits="objectBoundingBox"><stop offset="0" stop-color="#f836a6"/><stop offset="1" stop-color="#e30dff"/></linearGradient></defs><g transform="translate(-1447.5 -433)"><rect class="a" width="70" height="70" rx="5" transform="translate(1447.5 433)"/><g transform="translate(1446.513 442.126)"><path class="b" d="M64.454,21.889a1.537,1.537,0,0,1-1.111-.463L51.026,9.118a1.6,1.6,0,0,1,0-2.205l.92-.92a1.58,1.58,0,0,1,2.205,0L66.467,18.257a1.575,1.575,0,0,1,.465,1.119,1.611,1.611,0,0,1-.465,1.117l-.92.912h0a1.543,1.543,0,0,1-1.1.484ZM53,7.006l-.912.912a.105.105,0,0,0,0,.154l12.287,12.3a.126.126,0,0,0,.154,0l.912-.92a.093.093,0,0,0,0-.072.119.119,0,0,0,0-.082L53.159,7.007a.112.112,0,0,0-.154,0Z" transform="translate(-18.212 -1.304)"/><path class="b" d="M68.312,18.123A.728.728,0,0,1,67.8,17.9L55.665,5.792a.737.737,0,0,1-.215-.586.727.727,0,0,1,.311-.539A9.426,9.426,0,0,1,68.9,17.806a.727.727,0,0,1-.535.309ZM57.37,5.4l10.8,10.809A7.956,7.956,0,0,0,57.356,5.4Z" transform="translate(-20.643)"/><path class="b" d="M57.484,25.5a9.436,9.436,0,0,1-7.736-14.869A.744.744,0,0,1,50.9,10.5L62.984,22.652a.735.735,0,0,1-.1,1.117,9.4,9.4,0,0,1-5.4,1.729Zm-7-13.274A7.957,7.957,0,0,0,61.292,23.035Z" transform="translate(-16.933 -3.676)"/><path class="b" d="M17.764,48.92a3.568,3.568,0,0,1-2.551-1.066A3.616,3.616,0,0,1,15,42.986L31.4,23.449a.725.725,0,0,1,1.272.352,7.949,7.949,0,0,0,6.566,6.566.728.728,0,0,1,.354,1.273L20.072,48.067a3.546,3.546,0,0,1-2.309.854ZM31.6,25.5,16.125,43.949a2.144,2.144,0,0,0,.125,2.881,2.115,2.115,0,0,0,2.881.125L37.565,31.449A9.454,9.454,0,0,1,31.6,25.486Z" transform="translate(0 -10.128)"/><path class="b" d="M36.03,48.588a.739.739,0,0,1-.523-1.258l3.465-3.477a.734.734,0,0,1,1.035,1.035l-3.463,3.479a.728.728,0,0,1-.514.221Z" transform="translate(-10.567 -20.37)"/><path class="b" d="M30.3,77.661a.736.736,0,0,1-.523-1.258l10.612-10.61a3.56,3.56,0,0,0-5.023-5.045L24.664,71.477a5.024,5.024,0,0,1-7.1,0l-2.295-2.295h0a3.419,3.419,0,0,1,0-4.83A.736.736,0,0,1,16.3,65.389a1.947,1.947,0,0,0,0,2.75l2.3,2.3a3.558,3.558,0,0,0,5.022,0L34.34,59.735a5.022,5.022,0,1,1,7.1,7.1L30.826,77.448a.734.734,0,0,1-.522.213Z" transform="translate(-0.054 -27.663)"/></g></g></svg>